<svg id="圖層_1" data-name="圖層 1" xmlns="http://www.w3.org/2000/svg" viewBox="0 0 200 200"><defs><style>.cls-1{fill:#fff;}</style></defs><path class="cls-1" d="M71.11,42.29s-.34,12.8,1.88,14,5.86,4,6.49.84.66-8.42.14-9.7,3.53,1.5,6-.44,3.27-2,3.15-3.76-.3-3.94-3.83-5.44-14.28-2-14.28-2,6.59-3.57,6.88-5.36,1.65-6.73.31-7.51-5.44-4-6.13-1.75-1.81,10.27-1.81,10.27-2.88-4.2-4.35-6.73-4.35-6.73-6.93-7-5.44,1.73-4.43,3.85,2.75,8.17,4.58,9.8a18.31,18.31,0,0,1,3.33,4.6s-7.85-2.07-7.72-.31-2.23,4.57,0,5.72,6.61,2.6,8.28,2S71.11,42.29,71.11,42.29Z"/><path class="cls-1" d="M53.74,56.35s8.41,3.78,11.46,4.44S71,64.32,70.27,65.7s-6.49,4.88-8.81,2.41-7-7.41-8.28-7.76S49.61,64.14,51,65.8,59.8,86.3,59.8,86.3s7.42,19.27,10.2,22.15,5.83,3.53,11.88,4.41a79.52,79.52,0,0,0,14.15.27s-1.11-3.44-1.7-5.6S97.26,95,98.54,94.89l6.38-.47,5.13-17.56s5-7.86,8-7.64,21.35,5,26.56,6,15,5.5,17.77,8.82S168.1,92,166,97.84s-22.6,47.48-24.05,51.11-13.78,27.89-14.5,29.71-8.52,6.35-14.21,4.57-36.28-10.09-38.64-13-4.31-6.29-3.66-9,4.76-10.93,5.48-12.74,7.06-14.62,7.06-14.62a105.19,105.19,0,0,1-14.74-2.44c-6.54-1.72-15.12-7.69-17.14-17.67s-9.05-29.73-11-32.67-7.09-9.17-7.29-11.8A57.06,57.06,0,0,1,34,60.89l5.11-.38-2.58-6,2.66-4.6s5.24,1.37,6.22,3.06,3,6,3,6Z"/><path d="M118,69.58c7.84,2.22,16.06,3,24,5s20.44,5.22,23.11,14.15c1.79,6-2.5,11.79-4.6,17.09-3.37,8.54-6.84,17-10.13,25.61-3,7.8-7.88,14.45-11.31,22-1.61,3.57-3.36,7-5.21,10.42-1.92,3.6-3.17,7.51-5.39,11-6.41,10-20.32,7.29-29.82,4.28-8.85-2.81-17.94-6.34-25-12.52a.83.83,0,0,0-1.08,1.25c5.87,5.12,13.27,8.64,20.58,11.18,8.55,3,17.75,6.07,26.82,3.61,7.82-2.12,10.63-7.56,13.69-14.56a242.24,242.24,0,0,1,13.32-25.51c5.2-8.85,8.89-19.3,12.42-28.93,1.74-4.73,3.51-9.37,5.65-13.94a19.15,19.15,0,0,0,2.14-7.38c.38-9.2-8.93-14.1-16.38-16.79C140.21,71.74,129,71,118.32,68c-1-.29-1.33,1.33-.32,1.62Z"/><path d="M121.25,69.06c-6-.44-8,1.18-11,6.57-1.72,3.19-2.28,6.54-3.13,10-.72,3-2.12,6-1.75,9.16.12,1.05,1.77.94,1.65-.12-.46-3.86,1.67-9.13,2.64-12.84a25.58,25.58,0,0,1,3.19-7.37c2-3.2,4.34-4.08,8-3.81,1,.08,1.38-1.54.32-1.62Z"/><path d="M105.47,93.85c-2.24-.27-4.84-1.12-7-.23S94.81,97,93.78,99c-2.25,4.38-1.7,9.81,3.76,11.14,3.22.78,10.22,1.7,12.59-1.36,1.46-1.89.91-5,.43-7.09-.66-2.92-2.43-4.4-4.61-6.31a.83.83,0,0,0-1.08,1.25c1.54,1.34,3.24,2.56,3.89,4.59.51,1.56,1.19,4.73.27,6.22-1.57,2.53-7.73,1.68-10.08,1.29-5.14-.85-5.76-5.2-3.5-9.35,1-1.8,2.25-4,4.44-4.39,1.67-.3,3.59.32,5.26.51,1,.13,1.38-1.49.32-1.61Z"/><path d="M97.09,110c-9.84,1-24.47,7.87-27.89-6.24-.65-2.7-1.7-4-3.2-6.45a59.33,59.33,0,0,1-4.33-9.74c-2.23-5.82-4.62-11.55-6.86-17.37-3.07-8-5.45-18-15.24-20.16-6.12-1.36-3.16,7.63-1.22,10.28L39,59.06c-2.49.44-5.69.84-5.39,4.15.06.7.49,1.15.64,1.76.43,1.8-.12,3.39,0,5.16a14.29,14.29,0,0,0,1.57,5.51c1.23,2.6,2.92,5,4.3,7.49,2,3.63,2.66,7.61,3.83,11.53a70,70,0,0,0,4.21,9.74,85,85,0,0,1,3.57,10.16c1.61,5,3.54,11.2,7.91,14.47,3.82,2.85,10.41,4.41,15,5.28,3.1.59,6.21.18,9.32-.06,3.37-.27,7.53.18,10.68-1.11s5.64-3,9.19-3.75c2.12-.47,4.47-.92,6.16-2.4,3-2.59,1.86-7.71,1-11-1.67-6.27-6.79-6.32-12.34-6.91-1-.11-1.38,1.51-.32,1.62,3.3.35,7.67,0,10,3.06,1.58,2.1,1.95,5.85,1.89,8.49-.11,5-5.12,5-8.81,6a22.09,22.09,0,0,0-5.71,2.49c-3.78,2-8.54,1.64-12.72,2-3.42.27-6.6.46-9.92-.48-6.3-1.78-12.64-3.05-16-9.18-3-5.34-4-11.35-6.21-17-1.19-3-2.93-5.72-4.12-8.71-1.26-3.16-1.83-6.52-2.83-9.76-1.56-5-5.43-8.91-7-13.83-.82-2.57-.12-5.37-.21-8,0-.49-.61-.82-.64-1.29-.19-2.72,1-3.36,3.25-3.76a.84.84,0,0,0,.62-1.29c-.78-1.06-2.63-4.28-2.14-5.65,1.12-3.11,5.7-.4,7.38,1,3.9,3.13,5.37,7.79,6.93,12.34a148.69,148.69,0,0,0,5.57,14.6C59.75,86.6,61.18,92,63.8,96.76c1.19,2.19,2.94,4.06,3.64,6.5a19.91,19.91,0,0,0,1.19,4.19c1.37,2.76,3.58,5.4,6.59,6.32,7.06,2.16,14.94-1.41,22-2.1,1.05-.1.94-1.75-.12-1.64Z"/><path d="M92.7,131.44c0,5.2,3.34,8.95,6.2,13s5.14,8.65,9.42,11.46c3.12,2,8.12,4.7,12,3.56,3.09-.9,4.55-4.33,5.4-7.15,2.92-9.71-.82-20.78-5.09-29.51-2.9-5.91-7.21-14-14.67-14.31-1.06,0-.93,1.6.12,1.65,6.8.3,10.87,8.75,13.42,14.11,3.15,6.62,5.67,14.08,5.54,21.48-.06,3.82-1,11.57-6.11,12.32-4.37.64-10.67-3.65-13.31-6.75-2-2.4-3.55-5.23-5.36-7.79-2.66-3.78-5.87-7.3-5.91-12.19,0-1.06-1.66-.94-1.65.12Z"/><path d="M72.51,166a27,27,0,0,1,4.74-17.15,127.2,127.2,0,0,0,8.63-14.69.83.83,0,0,0-1.48-.73c-2.91,6.2-7,11.56-10.38,17.48-2.71,4.74-3.45,9.83-3.16,15.22a.83.83,0,0,0,1.65-.13Z"/><path d="M50.49,62.46c4.24-5,9.31-9.14,14-13.75,3.07-3,7-5.88,7.48-10.44a.83.83,0,0,0-.65-1c-4.41-.6-6.91-1.8-9.9-5.15-1.3-1.46-2.64-2.92-3.82-4.49-1.9-2.53-3.92-5.26-2.07-8.2,1.7-2.7,3.43-1.76,5.38.12,4.81,4.63,7.4,12.14,9.6,18.31a.83.83,0,0,0,1.6-.34c-.42-3.81-1.14-7.8-.63-11.64.36-2.72,3.35-7,5.58-2.16s-4.41,9.39-7.31,11.93c-.47.42-.48,1.4.31,1.49a32.13,32.13,0,0,0,6.92-.39,10,10,0,0,1,10,4.95c2.64,4.12-3.55,5.79-6.71,4.38-2.75-1.22-3.82-4.58-5.83-6.59-4-4-12.37-6.55-18.08-5.44-4.78.93-4.94,6.21-1.46,9.16,2.24,1.9,5.09,1.53,7.81,1.44,1.7,0,3.6.18,5.17-.66s2.2-2.58,3.79-3.45l-1.25-.4c1.37,4.63-.7,10,1.56,14.45,1.19,2.35,4.81,4.53,7.3,2.65,4.69-3.53-1.3-15-4.74-17.58-.85-.63-1.94.62-1.08,1.25,2.62,1.94,7.86,11.3,5.24,14.52-1.91,2.33-4.9-.67-5.58-2.4a15.29,15.29,0,0,1-.56-5.18c0-2.78.21-5.57-.58-8.27a.84.84,0,0,0-1.25-.4c-2.46,1.35-3.7,3.48-6.86,3.84-2.85.32-6.89.58-8.74-2-5.11-7.12,7.35-5.29,10.37-4.44a16.52,16.52,0,0,1,9.64,6.55A12.16,12.16,0,0,0,79,47.29c3.61,2,7.62.6,10.51-2a.89.89,0,0,0,.31-.95,13.2,13.2,0,0,0-6.1-8.09c-4.29-2.54-8.73-.23-13.35-.74l.3,1.49C74.16,34,78.9,30.71,78.92,25.5c0-3-2.54-6.39-5.94-5.33-5.63,1.75-3,13.53-2.55,17.5l1.6-.34c-2.22-6.22-4.88-13.28-9.37-18.24-2.82-3.11-8.73-4.9-9.79,1-.62,3.39,2,7,4,9.41,2.45,3,5.41,7.3,9.18,8.75,3.34,1.28,5.92-.15,2.08,4.48a69.76,69.76,0,0,1-4.94,4.94c-4.65,4.61-9.72,8.73-14,13.75-.68.81.57,1.89,1.25,1.08Z"/><path d="M52.29,59.92a33.92,33.92,0,0,1,9.16.62c1.61.35,10.67,3.84,6.35,5.65a13,13,0,0,1-6.51.63c-2.24-.36-3.28-1.66-4.72-3.28S53.46,59.72,51,59.69c-1.06,0-.93,1.63.12,1.64,3.51.05,5.46,6,9,7,3.25.83,7.74.33,10.41-1.8a.87.87,0,0,0,.31-1c-2-7.17-12.67-7.63-18.7-7.25a.82.82,0,0,0,.12,1.64Z"/><path d="M109.76,99.79a9.3,9.3,0,0,1,.36-4.57c.5-1.13,1.26-2.14,1.82-3.24a16.19,16.19,0,0,0,1.6-5.17c.25-1.85.32-3.84,1.2-5.52a5,5,0,0,1,5-2.79c1.94.13,3.67,1,5.5,1.57,2,.62,4.12,1,6.16,1.59a24.79,24.79,0,0,1,5.47,2.49A24.72,24.72,0,0,0,142,85.79c1.67.51,3.22,1.33,4.9,1.8,1.48.42,3,.68,4.49,1.07s3.07.81,4,2,.81,3.08.6,4.51a22,22,0,0,1-1.41,5,15.79,15.79,0,0,1-2,3.91c-1.06,1.37-2.45,2.59-3.11,4.23a11.16,11.16,0,0,0-.59,2.57,16.52,16.52,0,0,1-.89,3.52c-.73,2-1.34,4-2,6s-1.33,4.24-2.18,6.29-2,4.21-3.07,6.28c-4.42,8.6-9.07,17.08-13.23,25.81-1,2.1-1.89,4.24-2.73,6.4a15.14,15.14,0,0,1-3.09,5.27,39.64,39.64,0,0,0-2.9,3.57c-1.22,1.58-3.3,1.41-5.09,1.15a26.21,26.21,0,0,0-5.44-.54,17.62,17.62,0,0,1-5.88-.4,29.2,29.2,0,0,1-5.54-2.31,41.29,41.29,0,0,0-6-2.34c-4-1.27-8.9-1.83-12.1-4.81-.48-.46-1.45-1.25-1.5-2s.74-1.82,1.11-2.47c1-1.79,2.32-3.4,3.44-5.13,2-3.14,2.55-6.8,4-10.18a41.9,41.9,0,0,1,4.32-8,5.92,5.92,0,0,1,2.53-2.33.59.59,0,0,0-.39-1.11c-2.5.82-4.1,4.13-5.26,6.26a43.47,43.47,0,0,0-3.75,8.8,21.56,21.56,0,0,1-3,6.73,54.23,54.23,0,0,0-3.53,5.47c-.68,1.28-.95,2.3,0,3.5a12.46,12.46,0,0,0,4.87,3.62c4.31,1.86,9.05,2.48,13.35,4.4,3.77,1.68,7.13,3.56,11.38,3.55,1,0,2-.16,3-.13a30,30,0,0,1,3.52.46c1.77.29,3.74.56,5.41-.29,1.34-.68,1.95-2.13,2.85-3.27,1.23-1.56,2.65-2.75,3.59-4.56,1.09-2.12,1.8-4.44,2.78-6.62,1-2.35,2.21-4.66,3.35-7q3.51-7,7.2-14c2.37-4.5,5-9,6.91-13.71.87-2.15,1.56-4.38,2.25-6.6s1.57-4.51,2.29-6.78a21.93,21.93,0,0,0,.56-3.12,6.82,6.82,0,0,1,1.42-3.2,25.4,25.4,0,0,0,3.17-4.34c1.43-2.91,2.69-6.33,2.59-9.61a5.22,5.22,0,0,0-1.41-3.7,9.09,9.09,0,0,0-3.94-1.86c-1.58-.44-3.2-.71-4.78-1.16-1.79-.5-3.46-1.37-5.25-1.9-1.08-.31-2.2-.5-3.26-.86a17.56,17.56,0,0,1-2.77-1.48,22.89,22.89,0,0,0-6-2.14,65.09,65.09,0,0,1-6.58-1.9,10.21,10.21,0,0,0-5.34-.72c-4.1.81-5,4.92-5.48,8.46a16.67,16.67,0,0,1-1.8,6,24.57,24.57,0,0,0-1.82,3.39,11.06,11.06,0,0,0-.26,4.62.59.59,0,0,0,1.17-.08Z"/><path d="M125.84,82a.59.59,0,0,0-.09-1.18.59.59,0,0,0,.09,1.18Z"/><path d="M125.34,79.32c-.36-.19-.21-.28-.25.17,0,.24,0,.48-.08.71a5.36,5.36,0,0,0-.1,1.26c0,.39.27.43.38.71-.28,0-.29.15,0,.51,0,.22.07.43.09.65,0,.43.06.86.11,1.28A4.65,4.65,0,0,0,127.31,88a13.93,13.93,0,0,0,3.62,1.48c2.67.91,5,2.89,8,2.26a6.71,6.71,0,0,0,3-1.7c1-.88,2-1.72,3.43-1.59.75.07,1-1.09.23-1.16a4.58,4.58,0,0,0-3.11.79c-.94.64-1.69,1.54-2.69,2.1-2.88,1.58-5.72-.81-8.35-1.74A12.69,12.69,0,0,1,127.87,87c-1.5-1.15-1.16-3.06-1.5-4.7a4.27,4.27,0,0,0-.29-.94c-.25-.55-.2.27,0,0s.1-1.07.13-1.3c.07-.58.28-1.48-.35-1.81s-1.19.71-.52,1.06Z"/></svg>